<svg width="2000" height="500" viewBox="0 0 2000 500" fill="none" xmlns="http://www.w3.org/2000/svg">
<path d="M489.76 157.91H545.31L539.46 179.11C547.99 171.32 556.57 165.22 565.23 160.84C573.88 156.45 583.69 154.26 594.65 154.26C605.37 154.26 615.3 156.15 624.44 159.92C633.58 163.7 641.55 169.18 648.38 176.37C655.2 183.56 660.5 192.39 664.28 202.87C668.05 213.35 669.94 225.16 669.94 238.32C669.94 255.62 666.89 271.58 660.8 286.2C654.71 300.82 646.6 313.43 636.5 324.03C626.39 334.63 614.87 342.85 601.96 348.7C589.04 354.55 575.65 357.47 561.76 357.47C546.41 357.47 533.92 354.52 524.3 348.63C514.67 342.74 506.69 334.88 500.36 325.06L477.34 412.29H421.78L489.76 157.91ZM576.19 305.21C583.13 301.81 589.28 297.02 594.65 290.82C600.01 284.63 604.33 277.4 607.62 269.14C610.91 260.88 612.55 251.78 612.55 241.82C612.55 228.95 608.83 218.93 601.4 211.77C593.96 204.61 584.04 201.02 571.61 201.02C563.81 201.02 556.38 202.78 549.32 206.3C542.25 209.82 535.98 214.68 530.5 220.87C525.02 227.06 520.63 234.28 517.34 242.54C514.05 250.8 512.41 259.53 512.41 268.76C512.41 281.15 516.3 291.16 524.1 298.81C531.9 306.46 542.01 310.28 554.43 310.28C561.99 310.31 569.25 308.61 576.19 305.21Z" fill="#0C1649"></path>
<path d="M717.44 346.1C709.15 338.77 705.01 329.61 705.01 318.62C705.01 314.47 705.31 310.44 705.92 306.53C706.53 302.62 707.44 298.47 708.66 294.07L732.42 205.05H709.03L721.82 157.9H745.21L758.73 107.83H814.28L800.76 157.9H846.81L834.02 205.05H787.98L766.05 287.6C765.56 289.07 765.19 290.6 764.95 292.19C764.7 293.78 764.58 295.18 764.58 296.4C764.58 304.21 769.57 308.12 779.56 308.12C783.95 308.12 788.63 307.57 793.63 306.48C798.62 305.38 803.43 303.86 808.07 301.91L795.28 349.06C783.82 354.42 770.43 357.1 755.08 357.1C738.28 357.09 725.72 353.43 717.44 346.1Z" fill="#0C1649"></path>
<path d="M890.31 157.91H945.86L893.23 353.8H837.68L890.31 157.91Z" fill="#0C1649"></path>
<path d="M908.22 87H966.69L953.17 136.34H894.7L908.22 87Z" fill="#00C3FF"></path>
<path d="M998.12 157.91H1053.67L1048.19 178.2C1055.25 171.91 1062.93 166.35 1071.21 161.51C1079.49 156.67 1089.12 154.25 1100.08 154.25C1113.48 154.25 1124.51 157.4 1133.16 163.68C1141.8 169.97 1148.08 178.56 1151.98 189.44C1160.51 179.04 1170.62 170.58 1182.31 164.05C1194.01 157.52 1207.28 154.25 1222.15 154.25C1239.69 154.25 1253.52 159.31 1263.63 169.42C1273.74 179.53 1278.8 193.48 1278.8 211.27C1278.8 216.88 1278.13 222.91 1276.79 229.36C1275.45 235.82 1273.92 242.21 1272.22 248.55L1244.08 353.81H1188.53L1217.4 246.1C1218.13 243.42 1218.74 240.42 1219.23 237.12C1219.72 233.83 1219.96 230.95 1219.96 228.51C1219.96 212.4 1211.31 204.33 1194.01 204.33C1183.04 204.33 1174.15 207.93 1167.33 215.14C1160.51 222.35 1155.51 231.81 1152.35 243.53L1122.75 353.81H1067.2L1096.07 246.1C1096.8 243.42 1097.41 240.42 1097.9 237.12C1098.39 233.83 1098.63 230.95 1098.63 228.51C1098.63 212.4 1089.98 204.33 1072.68 204.33C1061.71 204.33 1052.82 207.93 1046 215.14C1039.18 222.35 1034.18 231.81 1031.02 243.53L1001.42 353.81H945.87L998.12 157.91Z" fill="#0C1649"></path>
<path d="M1347.51 157.91H1403.06L1350.43 353.8H1294.88L1347.51 157.91Z" fill="#0C1649"></path>
<path d="M1365.42 87H1423.89L1410.37 136.34H1351.9L1365.42 87Z" fill="#00C3FF"></path>
<path d="M1404.88 314.69L1533.16 202.86H1438.14L1450.2 157.91H1616.13L1605.53 197.02L1476.88 308.85H1576.65L1564.59 353.8H1394.28L1404.88 314.69Z" fill="#0C1649"></path>
<path d="M1687.03 303.18C1694.09 310.12 1704.94 313.6 1719.56 313.6C1726.87 313.6 1733.93 312.38 1740.76 309.94C1747.58 307.51 1755.01 303.49 1763.05 297.88L1788.63 332.23C1779.86 339.54 1769.32 345.7 1757.02 350.69C1744.71 355.68 1730.16 358.18 1713.35 358.18C1699.22 358.18 1686.54 356.17 1675.34 352.15C1664.13 348.13 1654.63 342.41 1646.83 334.97C1639.03 327.54 1633.06 318.47 1628.92 307.74C1624.77 297.02 1622.71 284.84 1622.71 271.19C1622.71 257.06 1625.45 242.99 1630.93 228.98C1636.41 214.97 1644.27 202.43 1654.5 191.34C1664.73 180.26 1676.98 171.3 1691.23 164.48C1705.48 157.66 1721.38 154.25 1738.92 154.25C1751.59 154.25 1762.92 156.2 1772.91 160.1C1782.9 164 1791.3 169.36 1798.13 176.18C1804.95 183 1810.13 191.04 1813.66 200.3C1817.19 209.56 1818.96 219.67 1818.96 230.63C1818.96 237.7 1818.1 245.01 1816.4 252.56C1814.69 260.11 1812.25 267.67 1809.09 275.22H1674.96C1675.94 286.92 1679.96 296.24 1687.03 303.18ZM1764.87 240.5C1766.09 236.36 1766.7 232.09 1766.7 227.71C1766.7 219.67 1764.2 212.85 1759.21 207.24C1754.21 201.64 1745.99 198.83 1734.54 198.83C1721.87 198.83 1710.72 202.67 1701.1 210.34C1691.47 218.02 1684.35 228.07 1679.72 240.49H1764.87V240.5Z" fill="#0C1649"></path>
<path d="M214.98 244.52C214.57 248.19 214.36 251.91 214.36 255.69C214.36 259.47 214.58 263.19 214.98 266.86H267.79C267.09 263.24 266.71 259.51 266.71 255.69C266.71 251.87 267.09 248.14 267.79 244.52H214.98Z" fill="#00C3FF"></path>
<path d="M208.73 301.6H289.09C281.6 295.73 275.59 288.07 271.69 279.26H200.39C202.28 287.11 205.1 294.6 208.73 301.6Z" fill="#00C3FF"></path>
<path d="M325.03 155.7C291.58 155.7 261.97 172.13 243.82 197.36H321.11V197.37C353.21 197.5 379.2 223.55 379.2 255.69C379.2 287.83 353.21 313.88 321.11 314.01V314.02H243.82C261.97 339.25 291.58 355.68 325.03 355.68C380.25 355.68 425.01 310.92 425.01 255.7C425.01 200.48 380.25 155.7 325.03 155.7Z" fill="#0C1649"></path>
<path d="M182 232.11H271.69C275.59 223.3 281.6 215.64 289.09 209.77H190.34C186.71 216.77 183.89 224.26 182 232.11Z" fill="#00C3FF"></path>
</svg>
